<svg xmlns="http://www.w3.org/2000/svg" width="2859" height="991" viewBox="0 0 2859 991">
  <defs>
    <style>
      .cls-1 {
        fill: #3f3f3f;
        stroke: #3f3f3f;
        stroke-linejoin: round;
        stroke-width: 30px;
        fill-rule: evenodd;
      }
    </style>
  </defs>
  <path id="One." class="cls-1" d="M730.373,911.833Q834.128,850.666,891.325,742.9,948.5,635.155,951.183,495.487q-2.681-139.67-59.858-247.414Q834.117,140.328,730.373,79.14,626.619,17.972,484.29,17.952q-142.35,0-246.084,61.188-103.753,61.2-160.951,168.933T17.4,495.487Q20.047,635.155,77.255,742.9q57.176,107.745,160.952,168.933,103.755,61.2,246.084,61.188T730.373,911.833ZM296.734,811.4q-77.16-48.54-117.721-131.022-40.592-82.461-40.57-184.895,0-102.414,40.57-184.9,40.56-82.46,117.721-131.022,77.13-48.541,187.556-48.552,110.394,0,187.555,48.552,77.13,48.571,117.721,131.022,40.56,82.493,40.571,184.9,0,102.444-40.571,184.895Q748.975,762.873,671.845,811.4q-77.16,48.573-187.555,48.552Q373.865,859.956,296.734,811.4ZM1232.51,949.078q17.955-17.271,17.96-42.566V507.458a467.912,467.912,0,0,1,93.11-89.122q53.19-38.565,125.04-38.575,78.465,0,112.4,43.231,33.915,43.241,33.92,119.051V906.512q0,25.284,17.29,42.566t42.57,17.292q25.245,0,43.23-17.292,17.955-17.271,17.96-42.566V528.741q0-71.829-27.94-131.023-27.93-59.172-81.14-94.443-53.22-35.229-129.03-35.249-89.13,0-146.98,37.91-57.87,37.91-100.43,84.466V335.865q0-26.593-17.96-43.9-17.955-17.271-43.23-17.292-25.29,0-42.56,17.292-17.31,17.3-17.3,43.9V906.512q0,25.284,17.3,42.566,17.265,17.271,42.56,17.292Q1214.54,966.37,1232.51,949.078Zm1147.94,7.316a498.076,498.076,0,0,0,95.11-41.9,79.316,79.316,0,0,0,24.6-20.617,44.879,44.879,0,0,0,9.98-28.6q0-22.6-15.96-37.245a55.38,55.38,0,0,0-61.19-9.312,426.675,426.675,0,0,1-78.48,29.929q-41.25,11.317-101.09,11.307-107.745,0-164.95-53.872t-67.84-142.995h450.94q27.93,0,44.56-17.292,16.62-17.271,16.62-42.566,0-89.1-36.58-164.942-36.6-75.82-107.08-123.042-70.515-47.2-172.92-47.221-110.43,0-180.9,50.547Q1964.74,369.14,1931.51,449.6q-33.255,80.5-33.25,170.928,0,167.6,91.12,260.051,91.1,92.468,253.4,92.447Q2329.225,973.021,2380.45,956.394ZM2055.22,452.921q30.585-42.556,74.49-62.519,43.89-19.953,86.46-19.952,42.555,0,86.46,19.952t75.16,62.519q31.23,42.587,35.25,111.735H2020.63Q2024.635,495.508,2055.22,452.921ZM2766.86,963.71q30.585,0,52.54-21.948t21.95-52.542v-7.981q0-30.583-21.95-52.542t-52.54-21.948h-13.3q-30.615,0-52.55,21.948t-21.94,52.542v7.981q0,30.615,21.94,52.542,21.96,21.948,52.55,21.948h13.3Z"/>
</svg>
